<svg xmlns="http://www.w3.org/2000/svg" width="594" height="607"><g fill="#0572cd"><path d="M241.6.1a52 52 0 0 0-14.1 2.2l-2.2.6a13.2 13.2 0 0 0-5 1.5l-1.1.3-1.6.4-2.1 1.2a101.3 101.3 0 0 0-12 5.8l-1.6 1-1.5.9a5.2 5.2 0 0 0-1 .3l-.9 1-6.4 4.5-2.2 2.5a97 97 0 0 0-17.8 21.9l-1 1.5-2.7 5.5-1.6 2.8-.3 1.5-.3 1.3-.6.9-.3 1.5-.6 1.3-.3 1.2-1.6 5.5-.6 2.5-2.2 15c0 2.6-.3 3.2-1.5 3.2l-4.3 1.2-3 1-10.2 4.2a77.6 77.6 0 0 0-16.7 11.1l-10.7 10.8-2.5 3-1.5 2-.4.2-3.3 5.3-.3.6-.4.6-.9 1.8-1.2 1.9-.3.3-2.8 6.2a38.5 38.5 0 0 0-2.5 6.7l-1.2 4.6-.6 1.6-.3 1-.3 2a79.4 79.4 0 0 0-1.6 27.5 66.8 66.8 0 0 0 1.9 11.7l.3 1.2.6 1.5a19.7 19.7 0 0 0 1.6 5.3l.3 1.5.6 1 .3 1.2.3 1.2 1.5 2.8a69 69 0 0 0 4 8.3l5.3 8 1.5 2.1a108 108 0 0 0 22.5 20.7 77.9 77.9 0 0 0 42.8 12.9h6.8l1.8-1a9.6 9.6 0 0 0 3.4-2.4 15 15 0 0 0 3.7-5.2l.6-2.5v-4.3c-1-3.4-1.9-5.2-4-7.4-2.5-2.8-7-4.3-13-4.3l-4.6-.3-3.3-.6-5.9-1.6a30.5 30.5 0 0 1-7-3l-4.7-2.2-1-.6-1.5-1-2.7-1.8a69.9 69.9 0 0 1-20-25l-.6-2-.7-1.6-.3-1-1.5-4.9-.3-1.2-.6-2.5-.7-3.7a107.1 107.1 0 0 1 .7-20l.6-2.4.3-1.3c0-1.2 1.2-4.6 2.5-6.7l.3-1.3a52.3 52.3 0 0 1 7.3-12.9 71.4 71.4 0 0 1 13.9-13.2 98.8 98.8 0 0 1 11.4-6.2l7.4-2.4 3.4-.7a142 142 0 0 1 21.2-2.1c.3-.6-1-9.6-1.2-11.1L187.4 90a82 82 0 0 1 1-12l.6-3 .6-2.2.3-1.2.6-1.9.3-1c0-.8 1-3 3.4-8a65.9 65.9 0 0 1 23.1-24.9 67.4 67.4 0 0 1 18.5-7.3l3-.7a72.7 72.7 0 0 1 24.4 1.3l3 .9 1.6.6 1 .3 9.2 4.3 3 2.2 2.5 1.5 2.2 1.6A62.2 62.2 0 0 1 299.8 57l4.3 7c.3 1 1.3 1.3 1.9.7l1.8-.6 1.6-.3 1.5-.7 1.5-.3 1.6-.6 2.4-.6 8-1.2a62.2 62.2 0 0 1 28 3.4l2 .6a62.5 62.5 0 0 1 32.2 32l1 2.2.6 1.8.3 1.2.6 1.3.3 1.5.6 1.5.3 1 1 2.7.6 2.5h1.5l2.8-.3 4-.6 4.3-.6a102.8 102.8 0 0 1 19.4.6l5.8 1.5 1.6.3 1 .3 2.7 1.3a50.2 50.2 0 0 1 10.8 5.8 69 69 0 0 1 19 20.3l3.1 6.2 1 2.5.9 2.1.6 1.9 1.2 5.5a65.9 65.9 0 0 1-.6 26.8c-.3 2.8-1 4.6-1.2 5l-.3.8-.3 1.6-1 1.8-.6 1.2a34.5 34.5 0 0 1-4 7.7 61 61 0 0 1-17 18.8l-3 2.2-9.2 4.9-1.6.6-2.4 1-3.1.9a20 20 0 0 1-6.5 1.2 34.5 34.5 0 0 0-9.2 2.1 28 28 0 0 0-5.3 5.3 14.8 14.8 0 0 0-1.5 7l.3 3.1.3 1.3a14.2 14.2 0 0 0 7.1 7.7l2.2.9h4.6a40 40 0 0 0 9.2-1 46.2 46.2 0 0 0 12-3.3l1.3-.3 1.5-.6 2.8-1.3a88.4 88.4 0 0 0 18.4-10.7l3.1-2.5a84 84 0 0 0 10.5-10.5l2.7-3 1.9-2.8 1.5-1.9.3-.3 1.3-2.4a63.1 63.1 0 0 0 5.8-10.2l1.3-3 1.2-2.5.3-1.3.3-.6.3-1.5 1-1.9.2-1.5a55.7 55.7 0 0 0 2.8-11.1c.6-1.5 1-9 1.3-15.4a74.2 74.2 0 0 0-3.7-25.5l-.4-1.3-.6-1.2a68 68 0 0 0-6.7-16l-1.6-2.2-.3-.9a12.9 12.9 0 0 1-2.5-3.7l-1.5-2.1-1.2-1.3c0-.3 0-.6-1.9-2.8l-2.1-2.4a91.7 91.7 0 0 0-14.2-12.6l-2.8-1.9-.3-.3-2.1-1.2a38.2 38.2 0 0 0-5.3-3.1 37.3 37.3 0 0 0-6.4-3l-8-3.2-3.1-.9-3-.6-2.5-.6a98.2 98.2 0 0 0-16-1.6c-2.5 0-3.1 0-3.7-.6l-.7-1.2-.3-1-.6-.5-1.2-2.5-1.6-2.8-.9-1.2-.9-1.6a121.3 121.3 0 0 0-15.7-17.8l-3-2.5-2.5-1.8a3 3 0 0 0-.7-.6l-6.1-3.7a49.9 49.9 0 0 0-9.9-5.3 9.5 9.5 0 0 1-3.4-1.5l-1.2-.3-1.2-.3a14.4 14.4 0 0 0-5-1.6l-1.2-.3-2.1-.6-2.2-.6c-1.2-.6-5.5-1.2-14.8-1.8h-9.8l-6.8.6c-1.5 0-1.8 0-2.8-1.3a98.2 98.2 0 0 0-17.5-16.6l-2.2-1.2-2.7-1.9-2.2-1.2a97.6 97.6 0 0 0-29.2-10l-3.1-.7a141.8 141.8 0 0 0-17.3-.3Zm37 152.1-2.8 1.9-1.2 1.2v57.3l33.5.3 33.6.3 1 .6 2 2.1 1 1.3v77h19.7c17.9 0 19.7 0 21-.7 1.8-.6 2.4-.9 3.3-2.4l.6-1.3v-95.4L367 194c-20.3 0-23.7-.3-24.3-.6-1.8-1.3-2.8-1.9-3.4-3.1l-.6-1.6v-37.2h-29.2Zm70.2 15.7v15.4h34.1c.4 0 0-.6-.6-1l-2.7-2.4-7.4-6.7-3.4-3.1-3-2.8-3.5-3-3.7-3.5-7.7-7-1.8-1.3Zm-135.2 55.7c-1.2 0-3.4 2.5-3.7 3.7l-.3 43.1.6 43.1 1.6 2.2 1.2 1h9.5c8 0 9.6.2 9.9.5l.3 21 .3 20.6 3.4-3 4.6-4.4 2.2-2.2q10.6-10 21.8-19.7l9.3-8.6 2.1-1.8 1.9-1.6 1.2-.9h26.2l26.1-.3 1.6-1.5 1.8-1.6v-85.9l-.9-1.2-1.8-1.8-1-.7-58.5-.3Zm109 12.4.6.3v33.5L323 304c-.3.6-1 .6-24.6.6H274l-1 1-2.7 2.4-4.7 4.3-4 3.7-3.3 3-3.1 2.9-3.7 3.3-4 4c-1.2 1.3-2.8 1.6-2.8 1v-25.6h-11.4c-10.1 0-11.4 0-11.7-.6l-.3-34.2c0-35.4 0-33.8 1.6-34.1l49.8-.4Z"/><path d="m261.3 271.7.3 18.4 1-.3 2.7-2.1a32 32 0 0 0 4.3-2.8l1.6-1a154.9 154.9 0 0 1 17.2-11l.6-.6-2.7-2.5-5.9-3.7-4.9-3.4a21.2 21.2 0 0 1-2.8-2.1l-1.2-.6-1.2-1-1.9-1.2q-3.3-2.4-6.8-4.6Z"/></g><text transform="translate(297 490)" fill="#0572cd" font-size="45" font-family="Nunito-Bold, Nunito" font-weight="700"><tspan x="-296.9" y="0">Oracle Content Management</tspan></text><text transform="translate(297 431)" fill="#0572cd" font-size="48" font-family="Nunito-Bold, Nunito" font-weight="700"><tspan x="-47.8" y="0">Free</tspan></text><g transform="translate(-27 -57)"><rect width="585" height="101" rx="50.5" transform="translate(32 563)" fill="#f6f7f9"/><text transform="translate(325 634)" fill="#0572cd" font-size="61" font-family="Nunito-Black, Nunito" font-weight="800"><tspan x="-205.8" y="0">Social Widget</tspan></text></g></svg>